<svg width="44" height="44" viewBox="0 0 44 44" fill="none" xmlns="http://www.w3.org/2000/svg">
<path d="M22 12C20.6868 12 19.3864 12.2587 18.1732 12.7612C16.9599 13.2638 15.8575 14.0003 14.9289 14.9289C13.0536 16.8043 12 19.3478 12 22C12 26.42 14.87 30.17 18.84 31.5C19.34 31.58 19.5 31.27 19.5 31V29.31C16.73 29.91 16.14 27.97 16.14 27.97C15.68 26.81 15.03 26.5 15.03 26.5C14.12 25.88 15.1 25.9 15.1 25.9C16.1 25.97 16.63 26.93 16.63 26.93C17.5 28.45 18.97 28 19.54 27.76C19.63 27.11 19.89 26.67 20.17 26.42C17.95 26.17 15.62 25.31 15.62 21.5C15.62 20.39 16 19.5 16.65 18.79C16.55 18.54 16.2 17.5 16.75 16.15C16.75 16.15 17.59 15.88 19.5 17.17C20.29 16.95 21.15 16.84 22 16.84C22.85 16.84 23.71 16.95 24.5 17.17C26.41 15.88 27.25 16.15 27.25 16.15C27.8 17.5 27.45 18.54 27.35 18.79C28 19.5 28.38 20.39 28.38 21.5C28.38 25.32 26.04 26.16 23.81 26.41C24.17 26.72 24.5 27.33 24.5 28.26V31C24.5 31.27 24.66 31.59 25.17 31.5C29.14 30.16 32 26.42 32 22C32 20.6868 31.7413 19.3864 31.2388 18.1732C30.7362 16.9599 29.9997 15.8575 29.0711 14.9289C28.1425 14.0003 27.0401 13.2638 25.8268 12.7612C24.6136 12.2587 23.3132 12 22 12V12Z" fill="white"/>
<rect x="1" y="1" width="42" height="42" rx="21" stroke="white" stroke-width="2"/>
</svg>
